<?xml version="1.0" encoding="UTF-8"?><svg xmlns="http://www.w3.org/2000/svg" width="1210.12" height="1210.12" xmlns:xlink="http://www.w3.org/1999/xlink" viewBox="0 0 1210.12 1210.12"><defs><style>.h{fill:url(#g);}.i{fill:url(#f);}.j{fill:url(#e);}.k{fill:url(#d);}.l{fill:url(#c);}.m{fill:#fff;}</style><linearGradient id="c" x1="410.46" y1="498.06" x2="1022.24" y2="498.06" gradientUnits="userSpaceOnUse"><stop offset="0" stop-color="#00c3ff"/><stop offset="1" stop-color="#ff6fff"/></linearGradient><linearGradient id="d" x1="375.77" y1="529.27" x2="987.55" y2="529.27" gradientUnits="userSpaceOnUse"><stop offset="0" stop-color="#00c3ff"/><stop offset="1" stop-color="#006fff"/></linearGradient><linearGradient id="e" x1="333.98" y1="572.51" x2="945.77" y2="572.51" gradientUnits="userSpaceOnUse"><stop offset="0" stop-color="#00c3ff"/><stop offset="1" stop-color="#c86fff"/></linearGradient><linearGradient id="f" x1="299.3" y1="587.53" x2="911.08" y2="587.53" xlink:href="#d"/><linearGradient id="g" x1="281.8" y1="604.46" x2="893.58" y2="604.46" xlink:href="#d"/></defs><g id="a"><rect class="m" x="140.02" y="39.26" width="1024" height="1024"/></g><g id="b"><rect class="l" x="410.46" y="192.17" width="611.78" height="611.78" rx="88" ry="88"/><rect class="k" x="375.77" y="223.38" width="611.78" height="611.78" rx="88" ry="88"/><rect class="j" x="333.98" y="266.62" width="611.78" height="611.78" rx="88" ry="88"/><rect class="i" x="299.3" y="281.64" width="611.78" height="611.78" rx="88" ry="88"/><rect class="h" x="281.8" y="298.57" width="611.78" height="611.78" rx="88" ry="88"/><rect class="m" x="337.28" y="508.23" width="106.52" height="88.76" rx="43.99" ry="43.99"/><rect class="m" x="467" y="508.23" width="106.52" height="88.76" rx="43.99" ry="43.99"/><rect class="m" x="596.71" y="508.23" width="106.52" height="88.76" rx="43.99" ry="43.99"/><rect class="m" x="726.43" y="508.23" width="106.52" height="88.76" rx="43.99" ry="43.99"/><rect class="m" x="337.28" y="628.22" width="106.52" height="88.76" rx="43.99" ry="43.99"/><rect class="m" x="467" y="628.22" width="106.52" height="88.76" rx="43.99" ry="43.99"/><rect class="m" x="596.71" y="628.22" width="106.52" height="88.76" rx="43.99" ry="43.99"/><rect class="m" x="726.43" y="628.22" width="106.52" height="88.76" rx="43.99" ry="43.99"/><rect class="m" x="337.28" y="748.22" width="106.52" height="88.76" rx="43.99" ry="43.99"/><rect class="m" x="467" y="748.22" width="106.52" height="88.76" rx="43.99" ry="43.99"/><rect class="m" x="596.71" y="748.22" width="106.52" height="88.76" rx="43.99" ry="43.99"/><rect class="m" x="726.43" y="748.22" width="106.52" height="88.76" rx="43.99" ry="43.99"/><rect class="m" x="337.28" y="388.23" width="106.52" height="88.76" rx="43.99" ry="43.99"/><rect class="m" x="467" y="388.23" width="106.52" height="88.76" rx="43.99" ry="43.99"/><rect class="m" x="596.71" y="388.23" width="106.52" height="88.76" rx="43.99" ry="43.99"/><rect class="m" x="726.43" y="388.23" width="106.52" height="88.76" rx="43.99" ry="43.99"/></g></svg>